<?xml version="1.0" encoding="UTF-8"?>
<!DOCTYPE svg PUBLIC "-//W3C//DTD SVG 1.0//EN" "http://www.w3.org/TR/2001/REC-SVG-20010904/DTD/svg10.dtd">
<!-- Creator: CorelDRAW 2018 (64-Bit) -->
<svg xmlns="http://www.w3.org/2000/svg" xml:space="preserve" width="8.0404mm" height="5.3541mm" version="1.0" style="shape-rendering:geometricPrecision; text-rendering:geometricPrecision; image-rendering:optimizeQuality; fill-rule:evenodd; clip-rule:evenodd"
viewBox="0 0 191.72 127.66"
 xmlns:xlink="http://www.w3.org/1999/xlink">
 <defs>
  <style type="text/css">
   <![CDATA[
    .fil0 {fill:#5090AB;fill-rule:nonzero}
   ]]>
  </style>
 </defs>
 <g id="Layer_x0020_1">
  <metadata id="CorelCorpID_0Corel-Layer"/>
  <path class="fil0" d="M113.08 83.03c6.41,-10.02 12.3,-18.98 17.57,-26.8 5.18,-7.82 8.35,-12.48 9.49,-14.06l0.18 -0.26c0.44,-0.62 0.62,-1.23 0.62,-1.67 0,-0.7 -0.35,-1.23 -1.05,-1.67 -0.79,-0.44 -1.67,-0.62 -2.73,-0.62 -0.7,0 -1.75,0.17 -3.25,0.53 -1.5,0.35 -2.99,1.67 -4.48,3.95 -0.26,0.44 -2.64,4.39 -7.03,11.95 -4.39,7.64 -9.4,16.6 -15.11,26.89 -0.62,1.05 -1.14,2.11 -1.67,3.16 -7.29,0.35 -13.18,1.32 -17.48,2.99 -5.19,2.02 -7.99,3.95 -8.44,5.89 0,0.17 -0.09,0.35 -0.09,0.53 0,1.67 2.29,2.63 6.68,2.9 0.53,0 1.05,0.09 1.58,0.09 3.08,0 7.03,-0.53 11.95,-1.58 -2.63,5.01 -5.1,9.84 -7.29,14.41 -3.95,8.17 -5.88,13.71 -5.88,16.43l0 0.44c0.09,0.53 0.35,0.88 0.79,1.06 0.18,0.09 0.44,0.09 0.62,0.09 0.26,0 0.62,-0.09 0.97,-0.26 0.35,-0.17 0.62,-0.62 0.79,-1.32l0 -0.26c0,-2.37 2.2,-7.56 6.68,-15.46 2.9,-5.18 6.24,-10.81 9.93,-16.78 1.06,-0.26 2.2,-0.62 3.34,-0.88 8.44,-0.09 17.75,-0.18 27.94,-0.35 10.19,-0.17 19.51,-0.35 27.85,-0.53 8.35,-0.17 14.06,-0.26 16.96,-0.35l1.32 -0.09 0 -1.58 -0.44 0c-1.76,-0.09 -6.15,-0.18 -13.18,-0.44 -7.03,-0.26 -15.2,-0.44 -24.51,-0.62 -7.03,-0.17 -13.88,-0.17 -20.47,-0.17l-6.59 0c21,-6.76 37.52,-14.67 49.47,-23.72 11.86,-9.05 19.33,-18.19 22.23,-27.33 0.97,-2.99 1.4,-5.89 1.4,-8.61 0,-5.54 -2.46,-11.16 -7.47,-16.7 -5.01,-5.62 -14.85,-9.4 -29.52,-11.42 -3.95,-0.53 -8.35,-0.79 -12.92,-0.79 -12.48,0 -27.32,1.93 -44.46,5.71 -14.59,3.43 -28.64,8.09 -42.26,13.97 -13.62,5.88 -25.22,12.91 -34.97,21 -6.59,5.71 -11.34,10.81 -14.41,15.47 -3.08,4.66 -4.92,8.87 -5.45,12.56 -0.18,1.23 -0.26,2.37 -0.26,3.51 0,2.28 0.44,4.48 1.32,6.76 0.88,2.29 2.2,4.31 3.87,6.06 1.67,1.85 3.16,3.16 4.57,4.04 1.32,0.88 2.11,1.32 2.2,1.32 0.09,0.09 0.26,0.09 0.35,0.09l0.09 0c0.09,-0.09 0.18,-0.18 0.18,-0.35 0,-0.09 -0.09,-0.26 -0.26,-0.44 -0.09,0 -0.79,-0.44 -2.02,-1.32 -1.23,-0.79 -2.64,-2.11 -4.13,-3.87 -1.58,-1.76 -2.81,-3.96 -3.69,-6.59 -0.62,-1.58 -0.88,-3.34 -0.88,-5.36 0,-1.23 0.18,-2.99 0.62,-5.45 0.44,-2.46 2.11,-5.98 5.1,-10.46 2.99,-4.48 7.64,-9.4 13.88,-14.76 9.58,-7.99 21.18,-14.76 34.62,-20.47 13.45,-5.62 27.5,-10.11 42,-13.44 16.61,-3.69 30.75,-5.54 42.53,-5.54 4.22,0 10.54,0.53 19.15,1.67 8.61,1.14 15.37,4.74 20.38,10.89 2.9,3.6 4.31,7.65 4.31,11.95 0,3.16 -1.23,7.73 -3.78,13.71 -2.55,5.98 -9.93,13.18 -21.97,21.61 -11.42,7.99 -26.54,14.94 -45.43,20.91 0,-0.09 0,-0.09 0.09,-0.18z"/>
 </g>
</svg>
